<mxfile host="app.diagrams.net" modified="2020-09-03T01:41:34.487Z" agent="5.0 (Windows NT 10.0; Win64; x64) AppleWebKit/537.36 (KHTML, like Gecko) Chrome/84.0.4147.135 Safari/537.36" etag="Kdb7nJQtlkVlpt5gqcKD" version="13.6.6" type="github">
  <diagram id="ZnHPtYmZ-xeU-6mByVXv" name="Page-1">
    <mxGraphModel dx="1106" dy="627" grid="1" gridSize="10" guides="1" tooltips="1" connect="1" arrows="1" fold="1" page="1" pageScale="1" pageWidth="827" pageHeight="1169" math="0" shadow="0">
      <root>
        <mxCell id="0" />
        <mxCell id="1" parent="0" />
        <mxCell id="p3U86yG0x5Jm_bMeujoB-1" value="" style="shape=internalStorage;whiteSpace=wrap;html=1;backgroundOutline=1;dx=40;dy=45;" parent="1" vertex="1">
          <mxGeometry x="100" y="335" width="250" height="190" as="geometry" />
        </mxCell>
        <mxCell id="p3U86yG0x5Jm_bMeujoB-2" value="零售" style="text;html=1;align=center;verticalAlign=middle;resizable=0;points=[];autosize=1;" parent="1" vertex="1">
          <mxGeometry x="190" y="345" width="40" height="20" as="geometry" />
        </mxCell>
        <mxCell id="p3U86yG0x5Jm_bMeujoB-3" value="营销" style="text;html=1;align=center;verticalAlign=middle;resizable=0;points=[];autosize=1;" parent="1" vertex="1">
          <mxGeometry x="260" y="345" width="40" height="20" as="geometry" />
        </mxCell>
        <mxCell id="p3U86yG0x5Jm_bMeujoB-4" value="DR" style="text;html=1;align=center;verticalAlign=middle;resizable=0;points=[];autosize=1;fontStyle=1;fontSize=21;" parent="1" vertex="1">
          <mxGeometry x="90" y="290" width="50" height="30" as="geometry" />
        </mxCell>
        <mxCell id="p3U86yG0x5Jm_bMeujoB-5" value="" style="shape=internalStorage;whiteSpace=wrap;html=1;backgroundOutline=1;dx=46;dy=45;" parent="1" vertex="1">
          <mxGeometry x="444" y="335" width="249" height="190" as="geometry" />
        </mxCell>
        <mxCell id="p3U86yG0x5Jm_bMeujoB-9" style="edgeStyle=elbowEdgeStyle;rounded=0;orthogonalLoop=1;jettySize=auto;html=1;entryX=1.012;entryY=0.405;entryDx=0;entryDy=0;entryPerimeter=0;fontSize=21;" parent="1" source="p3U86yG0x5Jm_bMeujoB-6" target="p3U86yG0x5Jm_bMeujoB-1" edge="1">
          <mxGeometry relative="1" as="geometry">
            <Array as="points">
              <mxPoint x="410" y="380" />
            </Array>
          </mxGeometry>
        </mxCell>
        <mxCell id="p3U86yG0x5Jm_bMeujoB-6" value="零售" style="text;html=1;align=center;verticalAlign=middle;resizable=0;points=[];autosize=1;" parent="1" vertex="1">
          <mxGeometry x="520" y="345" width="40" height="20" as="geometry" />
        </mxCell>
        <mxCell id="p3U86yG0x5Jm_bMeujoB-7" value="营销" style="text;html=1;align=center;verticalAlign=middle;resizable=0;points=[];autosize=1;" parent="1" vertex="1">
          <mxGeometry x="590" y="345" width="40" height="20" as="geometry" />
        </mxCell>
        <mxCell id="p3U86yG0x5Jm_bMeujoB-8" value="DM" style="text;html=1;align=center;verticalAlign=middle;resizable=0;points=[];autosize=1;fontStyle=1;fontSize=21;" parent="1" vertex="1">
          <mxGeometry x="434" y="290" width="50" height="30" as="geometry" />
        </mxCell>
        <mxCell id="p3U86yG0x5Jm_bMeujoB-13" value="" style="edgeStyle=orthogonalEdgeStyle;elbow=vertical;endArrow=classic;html=1;fontSize=21;entryX=0.647;entryY=0.002;entryDx=0;entryDy=0;entryPerimeter=0;" parent="1" source="p3U86yG0x5Jm_bMeujoB-3" target="p3U86yG0x5Jm_bMeujoB-5" edge="1">
          <mxGeometry width="50" height="50" relative="1" as="geometry">
            <mxPoint x="410" y="480" as="sourcePoint" />
            <mxPoint x="610" y="260" as="targetPoint" />
            <Array as="points">
              <mxPoint x="280" y="270" />
              <mxPoint x="606" y="270" />
            </Array>
          </mxGeometry>
        </mxCell>
        <mxCell id="p3U86yG0x5Jm_bMeujoB-14" value="" style="shape=image;verticalLabelPosition=bottom;labelBackgroundColor=#ffffff;verticalAlign=top;aspect=fixed;imageAspect=0;image=data:image/png,iVBORw0KGgoAAAANSUhEUgAAADEAAAA4CAYAAABUkxDUAAAFfUlEQVRoBe2ZXWhbZRzGd+29yTknq3Urfk3OexYnRSmKo86CWVub5CQnaWvUyWTg980qMgeyIWyOaWc7QSbzYuLmx2SUImw3U1RQhF0MJlN0WGqps61tt2mn+Mjzvjk0aU7SNTmZCeTiT5OUpu/vff7fZ5UmEqh3W1XvADx/A6JWVGwo0VDCx6zYcKc6cicbmnCNhZGva6tAeruTmYCeNc1MIEgTcQStWD1B2NBNWgKGmYJmprIQPSBUXSgRFAkEBG8/CU2kYZhpCRUyu6CZdeJOQWEjYNkICFuCBIUDXcRgmJ3QLILVlhreMSHi0EUnNNGJoIiCUJr8zEZz67N1ACED2sZqsxvSfUSPDGbDpBoZhDvexj4HBdY+CoS/y7f3x//B/KWrmJtfwOTFeZz9fgyfjH6FgV2H0Nb1AnTLH0U9lLAhD2xloIs+aIJBzWwVR8jqw50Pv1EAQKhSEBLk0lXMzi1gZvZP/D59GT//chEffPo5Nj/6SsXKekJoZhK6mZaHD1hRBK0e6V6GcLAusr8sCILkGtWZmrmMcz+M4/WDH+O2tsfLhvGAWJQ4KGIIWDGZXjUGtujFukh5SuQC5L6mOmO/TuPYiS8QfnBbWSBFIFQgM5iZiXRZKxxoog+3RwZ9USIXhKpMTM7io5Evccd9W1YMsiyEYSYRMlPQTQdB0YeWniHp/4yBXLvliUE0dQ3k2d3R7Wi3t2NTcgDdj+3EMy8P4fDRUzh3fjzPtQhEkPGJGRw4dAL6CtN4UQi2GTKtyqqdgM6aYfWiOfNWQRZiViJAqfoRCqfQck8Gd23ahtiWV/HesVOY/G0uD2Z2fgHnf5pAYuvukt+19P94QNiytVDVmpkqCYO9kxXDjVYczZkDZUHk/uObNqTR1vk89gx9KN0o17WmZ65g5OS3CIXpvovxWep1CQgHAbYdMlMRIiqruB8QPBAPee/m5/DOkc+kK7kgdKux8Wl0OC9VDiG7V95EtvhRiaCVwtrYcMVKuLfatCGNrsxOnDl7Ic+tpmau4LXBo5VAKAnZxarsRJfiZ3zfi5bIQdx/BAV280OlY8I9+NKfVvtTGD48kgfxx+xfOHn6TKUQjAt3fohLCIIYzE6RYXTsRYGteaA8iDWt/Xjyxf15EHSpHy9MVghBFUx2sByC4ouzhej3HcJY7yDStyMPgvFBl1qqWrH3noGtpjq23K5LuarQnfxVomoQDGamVqZZDkdsPVT70Yu1PkNUz52kAhxPF0E0odoOvyGqGthMqXo2xapWXEH46U5VTrFsMaLQs60HA5xxolKsPzFR5WKnagJ7J1UrWOSiaoUj60TlENeh7cgWtuzKhinWD4jr3wDKlQ2nO0e5kcmCl5TjanPHm2jb/W+B3do1CBa8XGvt/N9acdYG7p0IwTmCQ5GtZgorg9Xt+3DD038XGMGWVvLj36hFgdvcFftZhaEoF4IZSRU8d3lgbNxTAECociGqNJ7y0Gw5VAfL2Zoms5OVgV8QvP2p6aotChQAt36qDWeq5Q7WhhbeCmPj3rKUmCu6stlxzT3SinonCcCdk5yvH0GT2S33TpooTwneurs8Oz76NQZ2vVvt5Zk7O6j6oFxJtSDMVprVX/HNFbvRcj/36GIZCyx0XF9yDxuXmSooUnIbKEGucfYt91Ar/TsPCBXYKrgZH4sb8oCcMepiK64Cm3VCPaNQKZarfU2qw2xFl6sd81CCD1d4+9w7uU+LHIRMGucMtRWscQg1mhomawNjgxWbRY8tiCM35rUEwLN4KKGWZ7x5DkUyNrhzWq+MzWAdQChflwOR9PtsBZfuxSdIdeFObsC6Wcp9n4Wrl6enteYuy53HIybyb365L6iF3zcgakEFnqGhRK0o8R8zIuHXOx7DZwAAAABJRU5ErkJggg==;" parent="1" vertex="1">
          <mxGeometry x="100" y="335" width="40" height="45.71" as="geometry" />
        </mxCell>
        <mxCell id="p3U86yG0x5Jm_bMeujoB-15" value="" style="shape=image;verticalLabelPosition=bottom;labelBackgroundColor=#ffffff;verticalAlign=top;aspect=fixed;imageAspect=0;image=data:image/png,iVBORw0KGgoAAAANSUhEUgAAADEAAAA4CAYAAABUkxDUAAAFfUlEQVRoBe2ZXWhbZRzGd+29yTknq3Urfk3OexYnRSmKo86CWVub5CQnaWvUyWTg980qMgeyIWyOaWc7QSbzYuLmx2SUImw3U1RQhF0MJlN0WGqps61tt2mn+Mjzvjk0aU7SNTmZCeTiT5OUpu/vff7fZ5UmEqh3W1XvADx/A6JWVGwo0VDCx6zYcKc6cicbmnCNhZGva6tAeruTmYCeNc1MIEgTcQStWD1B2NBNWgKGmYJmprIQPSBUXSgRFAkEBG8/CU2kYZhpCRUyu6CZdeJOQWEjYNkICFuCBIUDXcRgmJ3QLILVlhreMSHi0EUnNNGJoIiCUJr8zEZz67N1ACED2sZqsxvSfUSPDGbDpBoZhDvexj4HBdY+CoS/y7f3x//B/KWrmJtfwOTFeZz9fgyfjH6FgV2H0Nb1AnTLH0U9lLAhD2xloIs+aIJBzWwVR8jqw50Pv1EAQKhSEBLk0lXMzi1gZvZP/D59GT//chEffPo5Nj/6SsXKekJoZhK6mZaHD1hRBK0e6V6GcLAusr8sCILkGtWZmrmMcz+M4/WDH+O2tsfLhvGAWJQ4KGIIWDGZXjUGtujFukh5SuQC5L6mOmO/TuPYiS8QfnBbWSBFIFQgM5iZiXRZKxxoog+3RwZ9USIXhKpMTM7io5Evccd9W1YMsiyEYSYRMlPQTQdB0YeWniHp/4yBXLvliUE0dQ3k2d3R7Wi3t2NTcgDdj+3EMy8P4fDRUzh3fjzPtQhEkPGJGRw4dAL6CtN4UQi2GTKtyqqdgM6aYfWiOfNWQRZiViJAqfoRCqfQck8Gd23ahtiWV/HesVOY/G0uD2Z2fgHnf5pAYuvukt+19P94QNiytVDVmpkqCYO9kxXDjVYczZkDZUHk/uObNqTR1vk89gx9KN0o17WmZ65g5OS3CIXpvovxWep1CQgHAbYdMlMRIiqruB8QPBAPee/m5/DOkc+kK7kgdKux8Wl0OC9VDiG7V95EtvhRiaCVwtrYcMVKuLfatCGNrsxOnDl7Ic+tpmau4LXBo5VAKAnZxarsRJfiZ3zfi5bIQdx/BAV280OlY8I9+NKfVvtTGD48kgfxx+xfOHn6TKUQjAt3fohLCIIYzE6RYXTsRYGteaA8iDWt/Xjyxf15EHSpHy9MVghBFUx2sByC4ouzhej3HcJY7yDStyMPgvFBl1qqWrH3noGtpjq23K5LuarQnfxVomoQDGamVqZZDkdsPVT70Yu1PkNUz52kAhxPF0E0odoOvyGqGthMqXo2xapWXEH46U5VTrFsMaLQs60HA5xxolKsPzFR5WKnagJ7J1UrWOSiaoUj60TlENeh7cgWtuzKhinWD4jr3wDKlQ2nO0e5kcmCl5TjanPHm2jb/W+B3do1CBa8XGvt/N9acdYG7p0IwTmCQ5GtZgorg9Xt+3DD038XGMGWVvLj36hFgdvcFftZhaEoF4IZSRU8d3lgbNxTAECociGqNJ7y0Gw5VAfL2Zoms5OVgV8QvP2p6aotChQAt36qDWeq5Q7WhhbeCmPj3rKUmCu6stlxzT3SinonCcCdk5yvH0GT2S33TpooTwneurs8Oz76NQZ2vVvt5Zk7O6j6oFxJtSDMVprVX/HNFbvRcj/36GIZCyx0XF9yDxuXmSooUnIbKEGucfYt91Ar/TsPCBXYKrgZH4sb8oCcMepiK64Cm3VCPaNQKZarfU2qw2xFl6sd81CCD1d4+9w7uU+LHIRMGucMtRWscQg1mhomawNjgxWbRY8tiCM35rUEwLN4KKGWZ7x5DkUyNrhzWq+MzWAdQChflwOR9PtsBZfuxSdIdeFObsC6Wcp9n4Wrl6enteYuy53HIybyb365L6iF3zcgakEFnqGhRK0o8R8zIuHXOx7DZwAAAABJRU5ErkJggg==;" parent="1" vertex="1">
          <mxGeometry x="444" y="335" width="45" height="51.41" as="geometry" />
        </mxCell>
        <mxCell id="TuGqnSLjYuuVJBIXHZO8-3" style="edgeStyle=elbowEdgeStyle;rounded=0;orthogonalLoop=1;jettySize=auto;html=1;fontSize=21;" edge="1" parent="1" source="TuGqnSLjYuuVJBIXHZO8-2">
          <mxGeometry relative="1" as="geometry">
            <mxPoint x="170" y="330" as="targetPoint" />
          </mxGeometry>
        </mxCell>
        <UserObject label="官网" treeRoot="1" id="TuGqnSLjYuuVJBIXHZO8-2">
          <mxCell style="whiteSpace=wrap;html=1;align=center;treeFolding=1;treeMoving=1;newEdgeStyle={&quot;edgeStyle&quot;:&quot;elbowEdgeStyle&quot;,&quot;startArrow&quot;:&quot;none&quot;,&quot;endArrow&quot;:&quot;none&quot;};fontSize=21;" vertex="1" parent="1">
            <mxGeometry x="110" y="130" width="120" height="60" as="geometry" />
          </mxCell>
        </UserObject>
      </root>
    </mxGraphModel>
  </diagram>
</mxfile>
